PathFileType	4	(X/Y/Z)	C:\Users\Basilio\Documents\Thesis Gigler\squatting_fais\c3dfiles\019\SLS_front_pre2\markers_experimental.trc
DataRate	CameraRate	NumFrames	NumMarkers	Units	OrigDataRate	OrigDataStartFrame	OrigNumFrames
200.000000	200.000000	4	59	mm	200.000000	628	1677
Frame#	Time	FHD			LBHD			RBHD			C7			T10			CLAV			LSHO			LUUPA			LMUPA			LDUPA			LLEP			LMEP			LRAD			LUL			LRFIN			RSHO			RUPA1			RMUPA			RDUPA			RLEP			RMEP			RRAD			RUL			RUFIN			LASI			RASI			USACR			LSACR			RSACR			LTHI1			LTHI2			LTHI3			LTHI4			LLFC			LTIB1			LTIB2			LTIB3			LTIB4			LLMAL			LMMAL			LHEE			LMT1			LMT2			LMT5			RTHI2			RTHI3			RTHI4			RLFC			RTIB1			RTIB2			RTIB3			RTIB4			RLMAL			RMMAL			RHEE			RMT1			RMT2			RMT5			RTHI			
		X1	Y1	Z1	X2	Y2	Z2	X3	Y3	Z3	X4	Y4	Z4	X5	Y5	Z5	X6	Y6	Z6	X7	Y7	Z7	X8	Y8	Z8	X9	Y9	Z9	X10	Y10	Z10	X11	Y11	Z11	X12	Y12	Z12	X13	Y13	Z13	X14	Y14	Z14	X15	Y15	Z15	X16	Y16	Z16	X17	Y17	Z17	X18	Y18	Z18	X19	Y19	Z19	X20	Y20	Z20	X21	Y21	Z21	X22	Y22	Z22	X23	Y23	Z23	X24	Y24	Z24	X25	Y25	Z25	X26	Y26	Z26	X27	Y27	Z27	X28	Y28	Z28	X29	Y29	Z29	X30	Y30	Z30	X31	Y31	Z31	X32	Y32	Z32	X33	Y33	Z33	X34	Y34	Z34	X35	Y35	Z35	X36	Y36	Z36	X37	Y37	Z37	X38	Y38	Z38	X39	Y39	Z39	X40	Y40	Z40	X41	Y41	Z41	X42	Y42	Z42	X43	Y43	Z43	X44	Y44	Z44	X45	Y45	Z45	X46	Y46	Z46	X47	Y47	Z47	X48	Y48	Z48	X49	Y49	Z49	X50	Y50	Z50	X51	Y51	Z51	X52	Y52	Z52	X53	Y53	Z53	X54	Y54	Z54	X55	Y55	Z55	X56	Y56	Z56	X57	Y57	Z57	X58	Y58	Z58	X59	Y59	Z59	

629	3.14	-271.8905639648438	1683.404052734375	-635.6262817382814	-397.1497192382814	1647.686645507813	-780.7813720703127	-402.1413574218751	1640.5146484375	-640.7906494140626	-417.642547607422	1470.72265625	-697.0144042968751	-474.8169250488282	1189.891357421875	-700.1912231445314	-278.5711364746094	1429.0087890625	-707.2713623046876	-346.3688659667969	1475.523315429688	-839.6008300781252	-222.7804107666016	1443.4091796875	-897.968200683594	-197.3339538574219	1434.856811523438	-857.323669433594	-156.4288940429688	1437.34033203125	-901.4791259765627	-88.08413696289064	1406.129760742188	-937.3763427734377	-92.3941116333008	1347.427124023438	-926.1527099609377	160.2525787353516	1391.650024414063	-848.9915771484377	158.640869140625	1395.298217773438	-917.2988281250002	223.5414581298829	1415.415771484375	-840.799011230469	-325.0270080566407	1471.995849609375	-577.5912475585939	-208.7052307128907	1402.876220703125	-479.1914672851564	-181.8372650146485	1430.271118164063	-510.5057067871095	-136.7733612060547	1399.171875	-475.9681701660157	-61.76655197143556	1396.2939453125	-488.6929626464845	-71.94596099853517	1336.890625	-500.5904541015626	175.3549957275391	1406.284301757813	-575.1247558593751	185.5401611328125	1410.541381835938	-509.6350708007814	263.4955749511719	1420.092529296875	-573.4663696289064	-355.2010192871094	984.8807373046877	-826.3074340820315	-341.5549011230469	963.6125488281252	-621.0778198242189	-498.2248840332032	1056.31640625	-709.3193969726564	-508.8107910156251	1026.282470703125	-738.1126098632814	-504.9465942382814	1024.539672851563	-680.2778930664064	-290.7214965820313	782.111999511719	-918.334899902344	-209.559555053711	755.5826416015626	-914.9594726562502	-181.156478881836	788.9025878906252	-895.6507568359377	-189.6474914550782	697.6820068359376	-909.0233154296877	-134.8882141113282	622.0733642578126	-892.7731933593752	-50.70890045166017	500.9998474121095	-866.0976562500002	-100.763786315918	446.6053771972657	-914.6714477539065	-63.14818191528322	450.9294738769532	-894.188903808594	-46.89765167236329	372.4874572753907	-859.6528320312502	-90.84011077880861	233.3767700195313	-879.6963500976565	-68.00466156005861	244.9216918945313	-801.5263671875002	-150.8248138427735	201.880111694336	-822.0258789062502	63.33753204345705	175.0843200683594	-817.3161621093752	64.5770721435547	170.6626281738282	-856.2902832031252	16.9148235321045	142.3638916015625	-900.7984619140627	-298.1081542968751	729.4884643554689	-560.3948364257814	-276.3088684082032	744.9507446289064	-583.7315673828126	-294.9844665527344	648.3998413085939	-567.2906494140626	-284.9895324707032	491.2675781250001	-614.2197875976564	-266.1099548339844	318.9154663085938	-695.1998291015626	-331.7520141601563	242.3473510742188	-649.0877075195314	-299.2863159179688	238.878646850586	-682.7421875000001	-315.7791748046876	205.7501678466797	-728.8331298828126	-389.2695617675782	127.8063049316407	-693.7299194335939	-373.1446228027344	139.2674407958985	-768.677185058594	-456.2160644531251	107.4513015747071	-749.0811157226564	-257.7844543457032	56.01965713500978	-774.5942993164065	-249.2411499023438	52.95372390747072	-732.6394653320314	-292.9483337402344	48.55123901367189	-674.3128051757814	-353.9140625000001	765.4654541015626	-554.0403442382814	
630	3.145	-271.4606018066407	1682.652587890625	-635.8474121093751	-396.8353576660157	1646.98583984375	-780.8206176757815	-401.7416381835939	1639.7646484375	-641.0001220703126	-417.2742004394532	1470.152587890625	-697.1029052734376	-474.9065246582032	1189.279541015625	-700.2489013671876	-278.3818054199219	1428.18017578125	-707.3713989257814	-346.0158386230469	1474.834106445313	-839.6885375976565	-222.6625518798829	1442.716796875	-898.0069580078127	-197.0250244140626	1434.02099609375	-857.2412719726565	-155.6807250976563	1436.67919921875	-901.527038574219	-87.74205780029298	1405.402709960938	-937.399597167969	-92.06211090087892	1346.695922851563	-926.259460449219	160.4889678955078	1390.68994140625	-848.962829589844	159.2716979980469	1394.875854492188	-917.673522949219	224.2699127197266	1414.64990234375	-841.0626220703127	-324.9301147460938	1471.23779296875	-577.7288818359376	-205.5479736328126	1404.171020507813	-476.6312866210939	-181.5247802734375	1429.554931640625	-510.5363769531251	-136.3641052246094	1398.524658203125	-476.0036621093751	-61.52889633178712	1395.38427734375	-488.7391967773439	-71.85733032226564	1336.134643554688	-500.4471740722657	174.8861999511719	1405.525268554688	-574.6976318359376	185.8018493652344	1409.616577148438	-509.640838623047	263.7330322265626	1419.311767578125	-573.4218750000001	-355.6556396484376	984.1814575195315	-826.3740844726565	-341.9196472167969	962.978942871094	-621.0557250976564	-498.6669921875001	1055.739624023438	-709.3910522460939	-509.5524902343751	1025.872924804688	-738.0795898437501	-505.2869873046876	1023.897216796875	-680.1885375976564	-290.9490966796876	781.677185058594	-918.2399902343752	-209.7889556884766	755.2441406250001	-914.809265136719	-181.4221496582032	788.6586914062502	-895.4663696289065	-189.7654266357422	697.4080200195314	-908.856872558594	-134.9815063476563	621.9283447265626	-892.6080322265627	-50.45394515991212	500.9538574218751	-865.8619384765627	-100.4049377441407	446.5255432128907	-914.476989746094	-62.80517196655275	450.9472656250001	-893.8939208984377	-46.5331153869629	372.5109863281251	-859.4035644531252	-89.86605834960939	233.1252593994141	-879.494567871094	-67.30553436279298	244.834701538086	-801.318786621094	-149.9090728759766	201.6504669189454	-821.8616333007815	64.30622863769533	175.3069000244141	-817.008972167969	65.52748870849611	170.8326263427735	-855.9671020507815	18.20922279357911	142.314682006836	-900.5709228515627	-298.2034301757813	728.9758911132814	-560.3176879882814	-276.4660339355469	744.6808471679689	-583.6824340820314	-294.8890991210938	648.0321655273439	-567.1629638671876	-284.4732360839844	491.0906982421876	-614.2445678710939	-265.7295837402344	318.7784118652344	-695.1752929687501	-331.4471740722657	242.1218261718751	-649.0850830078126	-299.0518798828126	238.8175964355469	-682.8209228515626	-315.6407775878907	205.6289825439454	-728.8203735351564	-389.1830444335939	127.7765655517578	-693.7274780273439	-373.1511535644532	139.2628479003907	-768.7198486328127	-456.1653442382814	107.2977142333985	-749.1362915039064	-257.7905883789063	56.01900100708009	-774.5733642578127	-249.2915802001954	53.02650070190431	-732.5226440429689	-292.9536743164063	48.60063552856447	-674.2874755859376	-354.1988525390626	764.8868408203126	-553.9166870117189	
631	3.15	-271.0157775878907	1681.830078125	-635.6827392578126	-396.2477416992189	1646.14013671875	-780.9039306640627	-401.3584594726564	1638.789428710938	-641.1382446289064	-416.9868774414064	1469.416259765625	-697.2756347656251	-475.1008911132814	1188.749267578125	-700.3168945312501	-278.1842956542969	1427.25	-707.4044799804689	-345.7646179199219	1474.092407226563	-839.761901855469	-222.4630126953126	1441.988891601563	-897.9866943359377	-196.3340454101563	1433.065185546875	-857.335632324219	-155.8267669677735	1435.777465820313	-901.5095214843752	-87.43096160888673	1404.660034179688	-937.4226074218752	-91.71687316894533	1345.95703125	-926.3281250000002	160.7981414794922	1389.890991210938	-849.0374145507815	159.7103729248047	1394.140747070313	-917.8084716796877	224.8590545654297	1413.733642578125	-841.1666259765627	-324.7279052734376	1470.866577148438	-578.0809936523439	-205.3903350830079	1403.44091796875	-476.7275390625001	-181.1177673339844	1428.710327148438	-510.6154174804689	-136.2347717285157	1397.798706054688	-476.3195800781251	-61.33797073364259	1394.552978515625	-488.7327880859376	-71.49232482910158	1335.16650390625	-500.8043823242189	175.7633819580078	1404.603393554688	-575.2556762695314	185.9806365966797	1408.83642578125	-509.648162841797	263.7807312011719	1418.517333984375	-573.4981689453126	-355.9162902832032	983.4271240234377	-826.3277587890627	-342.4358825683594	962.2798461914065	-621.0036010742189	-499.0040893554689	1055.180786132813	-709.3870849609376	-509.9314270019532	1025.38037109375	-738.0272827148439	-505.7552490234376	1023.361572265625	-680.1940917968751	-291.1945800781251	781.298767089844	-918.1381835937502	-210.1242218017579	755.0325927734376	-914.6662597656252	-181.6755523681641	788.3699340820315	-895.2642822265627	-189.9161529541016	697.0918579101564	-908.6496582031252	-134.9030914306641	621.6984863281251	-892.4099731445315	-50.27452468872072	500.9211730957032	-865.590026855469	-99.98760986328128	446.4413452148439	-914.298034667969	-62.487117767334	450.9100646972657	-893.6767578125002	-45.91520690917969	372.5143127441407	-859.097839355469	-88.9972381591797	233.0168609619141	-879.0678710937502	-66.48854827880861	244.7836608886719	-801.020202636719	-148.9892883300782	201.4833679199219	-821.6526489257815	65.20153808593751	175.4908142089844	-816.651794433594	66.56109619140626	170.9379119873047	-855.6269531250002	19.35276031494141	142.4113159179688	-900.3107910156252	-298.3493041992188	728.4645996093751	-560.3018798828126	-276.5368041992188	744.4218750000001	-583.6210327148439	-294.7120361328126	647.6083984375001	-567.0875854492189	-283.8111572265626	490.7056579589845	-614.2299194335939	-265.3688659667969	318.5549011230469	-695.2602539062501	-331.1122741699219	241.9712371826172	-649.0889282226564	-298.7933654785157	238.7117919921876	-682.8677368164064	-315.4378662109376	205.5374145507813	-728.8450317382814	-389.1228942871095	127.8204879760742	-693.7425537109376	-373.1595153808594	139.2874450683594	-768.6809082031252	-456.2886962890626	107.4894332885742	-749.1014404296876	-257.7904357910157	55.99665832519533	-774.6276855468752	-249.247543334961	52.95366668701173	-732.6445922851564	-292.9913940429688	48.59212493896486	-674.3074340820314	-354.4504394531251	764.4235229492189	-553.8563842773439	
632	3.155	-270.5890197753907	1681.164428710938	-636.0031738281251	-395.6336059570314	1645.236694335938	-781.1633911132815	-400.9232788085939	1638.257446289063	-641.2402343750001	-416.5880737304689	1468.781616210938	-697.3093261718751	-475.241668701172	1188.188232421875	-700.2864990234376	-277.9286499023438	1426.363159179688	-707.5441894531251	-345.3593139648438	1473.370361328125	-839.7298583984377	-221.9524383544922	1441.251586914063	-898.1280517578127	-196.1918029785157	1432.516845703125	-857.2854003906252	-155.1305541992188	1435.244018554688	-901.5415649414065	-87.11859130859376	1403.98193359375	-937.4812622070315	-91.41604614257814	1345.29443359375	-926.3546142578127	161.1858215332032	1389.242797851563	-849.1848754882815	160.0469818115235	1393.464233398438	-917.852478027344	225.2983398437501	1413.013427734375	-841.2562255859377	-324.2696228027344	1470.073120117188	-578.0100097656251	-205.2377929687501	1402.72021484375	-476.7456970214845	-180.5807342529297	1427.851196289063	-510.5796508789064	-135.9187622070313	1396.927734375	-476.1470947265626	-61.11789321899415	1393.866455078125	-488.7718505859376	-71.48314666748048	1334.435668945313	-501.0174560546876	175.2462005615235	1403.76025390625	-574.7027587890626	186.1526794433594	1407.9677734375	-509.6614685058595	264.2236022949219	1417.48046875	-573.5213623046876	-356.3484802246094	982.6790771484377	-826.2139892578127	-343.0434265136719	961.5882568359377	-620.9059448242189	-499.2556762695314	1054.755981445313	-709.2847900390626	-510.3471984863282	1024.798706054688	-738.1342163085939	-506.2464599609376	1022.90478515625	-680.2523803710939	-291.5032043457032	780.8956298828127	-918.0498046875002	-210.4196929931641	754.7568359375001	-914.4177246093752	-181.9751586914063	788.0908203125002	-895.0952148437502	-190.03955078125	696.8682250976564	-908.490173339844	-134.8786773681641	621.4260864257814	-892.1169433593752	-50.07801055908205	500.8975830078126	-865.322692871094	-99.63441467285159	446.2394104003907	-914.1123046875002	-62.1876564025879	450.8583068847657	-893.4199829101565	-45.35732650756837	372.4486694335938	-858.836853027344	-88.46209716796876	233.0020141601563	-879.0677490234377	-65.72879028320314	244.6215362548829	-800.7980957031252	-148.1211547851563	201.2255554199219	-821.4390258789065	66.15856933593751	175.64208984375	-816.3114013671877	67.46183013916017	171.050521850586	-855.3169555664065	20.08874702453614	142.6559753417969	-899.9353637695315	-298.4342041015626	728.1878051757814	-560.2514038085939	-276.6510009765626	744.1812133789064	-583.6708374023439	-294.5334167480469	647.2363281250001	-567.0798950195314	-283.3732910156251	490.7084045410157	-614.3002929687501	-265.0754699707032	318.3990478515626	-695.3601074218751	-330.8696594238282	241.8850708007813	-649.1812133789064	-298.6287841796876	238.5328674316407	-682.9747314453126	-315.3087158203126	205.3842315673829	-728.9517211914064	-389.0410461425782	127.8067245483399	-693.8249511718751	-373.1261596679688	139.2437591552735	-768.711608886719	-456.1300659179689	107.27685546875	-749.1655273437501	-257.6987609863282	55.92560958862306	-774.6123657226565	-249.280258178711	52.98339843750001	-732.6459960937501	-292.8681030273438	48.55797958374025	-674.3005371093751	-354.5739135742188	763.9459228515626	-553.8383789062501	
